#N canvas 150 446 820 426 12;
#X obj 100 100 cnv 19 310 100 empty empty empty 20 12 0 12 #131255 #404040 0;
#X msg 264 225 252;
#X msg 165 225 250;
#X msg 114 225 248;
#X obj 114 204 metro 20.8333;
#X obj 473 142 expr (60000/$f1/24), f 7;
#X obj 114 169 tgl 15 0 empty empty Clock -7 -5 0 10 #c4c4fc #000000 #fcfcfc 0 1;
#X msg 215 225 251;
#X obj 215 169 bng 15 250 50 0 empty empty Continue -17 -7 0 10 #c4c4fc #00fc04 #fcfcfc;
#X obj 264 169 bng 15 250 50 0 empty empty Stop -5 -7 0 10 #c4c4fc #fc0400 #fcfcfc;
#X obj 164 169 bng 15 250 50 0 empty empty Start -7 -7 0 10 #c4c4fc #00fc04 #fcfcfc;
#X obj 207 128 nbx 5 14 1 1000 0 0 empty empty BPM 0 -8 0 10 #c4c4fc #000000 #fcfcfc 0 256;
#X obj 114 246 select;
#X text 129 324 by NoDSP;
#X text 129 310 Midi System Realtime;
#X text 129 337 v0.1;
#X text 324 336 MIDI Real Time Bytes: 248 = pulse 250 = sequencer start 251 = sequencer continue 252 = sequencer stop;
#X obj 177 280 midiout 1;
#X connect 1 0 17 0;
#X connect 2 0 17 0;
#X connect 3 0 17 0;
#X connect 4 0 3 0;
#X connect 5 0 4 1;
#X connect 6 0 4 0;
#X connect 6 0 12 0;
#X connect 7 0 17 0;
#X connect 8 0 7 0;
#X connect 9 0 1 0;
#X connect 10 0 2 0;
#X connect 11 0 5 0;
#X coords 0 -1 1 1 310 100 2 100 100;
