#N canvas 68 33 784 463 12;
#X obj 134 55 t f f;
#X obj 116 97 % 8;
#X obj 313 319 +;
#X obj 335 187 * 8;
#X obj 174 95 expr $i1/16;
#X text 156 80 y;
#X text 101 75 x;
#X obj 134 27 inlet;
#X obj 91 155 t f f f;
#X obj 174 119 t f f f;
#X obj 69 318 pack f f;
#X obj 69 342 outlet;
#X obj 313 342 outlet;
#X text 203 68 output: list xy \, x \, y \, gridArray index;
#X text 203 45 input: grid midi in;
#X connect 0 0 1 0;
#X connect 0 1 4 0;
#X connect 1 0 8 0;
#X connect 2 0 12 0;
#X connect 3 0 2 1;
#X connect 4 0 9 0;
#X connect 7 0 0 0;
#X connect 8 0 10 0;
#X connect 8 2 2 0;
#X connect 9 0 10 1;
#X connect 9 2 3 0;
#X connect 10 0 11 0;
