#N canvas 354 93 721 681 10;
#X obj 227 482 outlet;
#X obj 233 364 spigot;
#X floatatom 283 193 2 0 0 0 - - - 0;
#X obj 268 219 ==;
#X floatatom 379 112 4 0 0 0 - - - 0;
#X obj 364 139 ==;
#X obj 379 60 loadbang;
#X msg 379 83 127;
#X obj 280 270 +;
#X obj 340 485 outlet;
#X text 347 468 velocity out;
#X text 234 465 padMidiNote;
#X floatatom 236 439 5 0 0 0 - - - 0;
#X floatatom 364 160 5 0 0 0 - - - 0;
#X obj 233 58 notein 17;
#X connect 1 0 0 0;
#X connect 1 0 12 0;
#X connect 2 0 3 1;
#X connect 3 0 8 1;
#X connect 4 0 5 1;
#X connect 5 0 8 0;
#X connect 5 0 13 0;
#X connect 6 0 7 0;
#X connect 7 0 4 0;
#X connect 8 0 1 1;
#X connect 14 0 1 0;
#X connect 14 1 3 0;
#X connect 14 1 5 0;
#X connect 14 1 9 0;
