#N canvas 410 296 782 463 12;
#X obj 82 17 inlet;
#X msg 36 125 120;
#X obj 36 149 until;
#X obj 37 214 f 0;
#X obj 68 214 + 1;
#X msg 84 150 0;
#X obj 169 362 noteout;
#X obj 37 176 t b b;
#X msg 99 215 0;
#X obj 82 51 route clear padOff;
#X obj 174 86 t f b;
#X msg 206 112 0;
#X obj 320 370 ctlout;
#X obj 339 283 f;
#X obj 376 283 + 1;
#X obj 339 323 + 104;
#X msg 373 214 0;
#X obj 36 96 t b b b b;
#X msg 319 193 8;
#X obj 319 217 until;
#X obj 377 305 mod 8;
#X floatatom 339 347 5 0 0 0 - - - 0;
#X obj 318 239 t b b;
#X msg 298 286 0;
#X text 280 390 top row circles off notice ctl number in middle \, vel on left;
#X msg 215 339 1;
#X obj 295 46 loadbang;
#X connect 0 0 9 0;
#X connect 1 0 2 0;
#X connect 2 0 7 0;
#X connect 3 0 4 0;
#X connect 3 0 6 0;
#X connect 4 0 3 1;
#X connect 5 0 3 0;
#X connect 7 0 3 0;
#X connect 7 1 8 0;
#X connect 8 0 6 1;
#X connect 9 0 17 0;
#X connect 9 1 10 0;
#X connect 10 0 6 0;
#X connect 10 1 11 0;
#X connect 11 0 6 1;
#X connect 13 0 14 0;
#X connect 13 0 15 0;
#X connect 14 0 20 0;
#X connect 15 0 21 0;
#X connect 16 0 13 0;
#X connect 17 0 1 0;
#X connect 17 1 5 0;
#X connect 17 2 18 0;
#X connect 17 3 16 0;
#X connect 18 0 19 0;
#X connect 19 0 22 0;
#X connect 20 0 13 1;
#X connect 21 0 12 1;
#X connect 22 0 23 0;
#X connect 22 1 13 0;
#X connect 23 0 12 0;
#X connect 25 0 6 2;
#X connect 26 0 25 0;
#X connect 26 0 17 0;
