#N canvas 717 76 658 503 12;
#X obj 285 36 until;
#X floatatom 429 214 5 0 127 0 - - - 0;
#X msg 285 11 120;
#X obj 18 432 noteout;
#X obj 30 197 f 0;
#X obj 366 99 f 0;
#X obj 78 39 tgl 19 0 empty empty empty 0 -10 0 12 #fcfcfc #000000 #000000 0 1;
#X msg 386 58 0;
#X msg 63 86 0;
#X floatatom 127 255 5 0 0 0 - - - 0;
#X obj 74 199 + 1;
#X obj 18 240 mod 8;
#X obj 28 69 bng 19 250 50 0 empty empty empty 0 -10 0 12 #fcfcfc #000000 #000000;
#X floatatom 18 397 5 0 0 0 - - - 0;
#X obj 127 228 div 8;
#X obj 18 363 +;
#X obj 117 307 * 16;
#X floatatom 76 250 5 0 0 0 - - - 0;
#X obj 127 201 mod 64;
#X floatatom 62 280 5 0 0 0 - - - 0;
#X obj 397 99 + 1;
#X obj 392 136 mod 6;
#X obj 129 5 tgl 19 0 empty empty empty 0 -10 0 12 #fcfcfc #000000 #000000 0 1;
#X obj 161 25 metro 180;
#X obj 429 268 + 13;
#X floatatom 480 248 5 0 0 0 - - - 0;
#X msg 494 324 60;
#X msg 455 146 6;
#X floatatom 439 116 5 0 0 0 - - - 0;
#X msg 491 127 9;
#X obj 127 72 metro 5;
#X obj 246 132 f 0;
#X obj 284 132 + 1;
#X obj 284 156 mod 120;
#X floatatom 246 156 5 0 0 0 - - - 0;
#X msg 523 293 68;
#X msg 82 446 1;
#X obj 82 413 loadbang;
#X text 114 447 launchpad Midi channel;
#X obj 127 278 + 0;
#X obj 66 327 t b f;
#X connect 0 0 4 0;
#X connect 0 0 5 0;
#X connect 1 0 24 0;
#X connect 2 0 0 0;
#X connect 4 0 10 0;
#X connect 4 0 11 0;
#X connect 4 0 17 0;
#X connect 4 0 18 0;
#X connect 5 0 20 0;
#X connect 6 0 30 0;
#X connect 7 0 5 1;
#X connect 7 0 5 0;
#X connect 8 0 4 1;
#X connect 8 0 11 0;
#X connect 8 0 4 0;
#X connect 8 0 18 0;
#X connect 9 0 39 0;
#X connect 10 0 4 1;
#X connect 11 0 19 0;
#X connect 11 0 15 0;
#X connect 12 0 4 0;
#X connect 13 0 3 0;
#X connect 14 0 9 0;
#X connect 15 0 13 0;
#X connect 16 0 40 0;
#X connect 18 0 14 0;
#X connect 20 0 21 0;
#X connect 21 0 5 1;
#X connect 21 0 1 0;
#X connect 22 0 23 0;
#X connect 23 0 2 0;
#X connect 24 0 3 1;
#X connect 25 0 24 1;
#X connect 26 0 24 1;
#X connect 27 0 21 1;
#X connect 28 0 21 1;
#X connect 29 0 21 1;
#X connect 30 0 4 0;
#X connect 30 0 16 0;
#X connect 30 0 5 0;
#X connect 31 0 32 0;
#X connect 31 0 34 0;
#X connect 32 0 31 1;
#X connect 32 0 33 0;
#X connect 33 0 31 0;
#X connect 35 0 24 1;
#X connect 36 0 3 2;
#X connect 37 0 36 0;
#X connect 39 0 16 0;
#X connect 40 0 15 0;
#X connect 40 1 15 1;
