#N canvas 330 238 450 300 12;
#X obj 84 227 +;
#X obj 138 208 expr $i1*16;
#X obj 10 43 unpack f f;
#X obj 10 19 inlet;
#X obj 85 19 inlet;
#X obj 138 19 inlet;
#X obj 84 251 outlet;
#X obj 10 91 t f f;
#X obj 77 91 t f f;
#X obj 272 204 * 8;
#X obj 254 227 +;
#X obj 254 251 outlet;
#X text 155 43 input: list xy \, x \, y \; output: pad midinote \, grid array index;
#X connect 0 0 6 0;
#X connect 1 0 0 1;
#X connect 2 0 7 0;
#X connect 2 1 8 0;
#X connect 3 0 2 0;
#X connect 4 0 0 0;
#X connect 5 0 1 0;
#X connect 7 0 0 0;
#X connect 7 1 10 0;
#X connect 8 0 1 0;
#X connect 8 1 9 0;
#X connect 9 0 10 1;
#X connect 10 0 11 0;
